<?xml version="1.0" encoding="utf-8"?>
<!-- Generator: Adobe Illustrator 27.5.0, SVG Export Plug-In . SVG Version: 6.00 Build 0)  -->
<svg version="1.1" xmlns="http://www.w3.org/2000/svg" xmlns:xlink="http://www.w3.org/1999/xlink" x="0px" y="0px"
	 viewBox="0 0 500 500" style="enable-background:new 0 0 500 500;" xml:space="preserve">
<g id="Background_Simple">
	<g>
		<path style="fill:#92E3A9;" d="M442.043,119.65c0,0-99.78-100.655-168.925-101.53C203.973,17.245,26.295,145.908,13.166,186.17
			c-13.129,40.262,73.522,243.322,134.79,274.831c61.268,31.509,305.465-108.532,333.474-151.42
			C509.438,266.694,472.677,168.665,442.043,119.65z"/>
		<path style="opacity:0.75;fill:#FFFFFF;" d="M442.043,119.65c0,0-99.78-100.655-168.925-101.53
			C203.973,17.245,26.295,145.908,13.166,186.17c-13.129,40.262,73.522,243.322,134.79,274.831
			c61.268,31.509,305.465-108.532,333.474-151.42C509.438,266.694,472.677,168.665,442.043,119.65z"/>
	</g>
</g>
<g id="Clouds">
	<g>
		<path style="fill:none;stroke:#263238;stroke-miterlimit:10;" d="M189.165,30.207c-13.089,4.654-16.579,18.283-20.568,22.937
			c-5.319,6.205-12.41-12.41-29.253-7.978c-16.842,4.432-15.07,14.183-22.161,18.615c-7.091,4.432-10.637-6.205-18.615-2.659
			c-7.978,3.546-12.41,7.978-14.183,11.524c-1.773,3.546-11.524,0.887-15.07,2.659c-3.546,1.773-7.978,4.432-7.978,4.432h223.384
			c0,0-2.659-19.502-14.183-23.934c-11.524-4.432-22.161,7.978-29.253,1.773c0,0-7.978-23.934-35.458-28.366
			c-1.847-0.298-3.589-0.476-5.235-0.546"/>
	</g>
	<g>
		<path style="fill:none;stroke:#263238;stroke-miterlimit:10;" d="M185.507,328.041c-2.413-5.44-7.324-11.818-17.246-13.418
			c-18.111-2.921-24.874,14.75-28.38,18.839c-3.506,4.09-8.179-8.179-19.28-5.258c-11.101,2.921-9.932,9.348-14.606,12.269
			c-4.674,2.921-7.011-4.09-12.269-1.753c-5.258,2.337-8.179,5.258-9.348,7.595c-1.168,2.337-7.595,0.584-9.932,1.753
			c-2.337,1.169-5.258,2.921-5.258,2.921h147.228c0,0-1.753-12.853-9.348-15.774c-7.595-2.921-14.606,5.258-19.28,1.168"/>
	</g>
	<g>
		<path style="fill:none;stroke:#263238;stroke-miterlimit:10;" d="M375.545,220.682h92.749c0,0-1.753-12.853-9.348-15.774
			c-7.595-2.921-14.606,5.258-19.28,1.169c0,0-5.258-15.775-23.37-18.696c-18.111-2.921-21.033,11.685-24.538,15.775
			c-3.505,4.09-8.179-8.179-19.28-5.258c-11.101,2.921-9.932,9.348-14.606,12.269s-7.011-4.09-12.269-1.753
			c-5.258,2.337-8.179,5.258-9.348,7.595c-1.168,2.337-7.595,0.584-9.932,1.753c-2.337,1.169-5.258,2.921-5.258,2.921h44.464"/>
	</g>
</g>
<g id="Megaphone_3">
	<g>
		<path style="fill:#9C9C9C;stroke:#263238;stroke-miterlimit:10;" d="M499.737,221.605c-10.372,13.037-19.812,24.421-22.216,26.508
			c-4.802,4.168-6.377,1.148-9.395-1.75c-3.018-2.897-28.565-21.925-41.643-39.519c-13.079-17.594-19.67-27.649-19.67-27.649
			s-0.168-1.001,0.545-8.085c0.712-7.084,1.868-14.124-2.036-17.11c-3.904-2.987-9.51-1.493-13.188,3.951
			c-3.678,5.444-16.873,24.277-16.873,24.277s6.245,6.274,8.673,8.81c2.428,2.536,4.806,6.688,10.8,15.453
			c5.994,8.764,29.102,47.135,41.819,62.099c12.717,14.964,28.224,28.867,31.554,28.665c3.33-0.202,8.396-2.555,18.451-9.146
			c3.251-2.131,8.103-5.316,13.179-8.65V221.605z"/>
		<g>
			<g>
				<path style="fill:#92E3A9;stroke:#263238;stroke-miterlimit:10;" d="M392.184,207.673c-0.388,0-0.774-0.149-1.068-0.447
					c-0.581-0.59-0.574-1.54,0.016-2.122l20.152-19.865c0.591-0.581,1.539-0.572,2.121,0.015c0.581,0.59,0.574,1.54-0.016,2.122
					l-20.152,19.865C392.944,207.529,392.564,207.673,392.184,207.673z"/>
			</g>
			<g>
				<path style="fill:#FFFFFF;stroke:#263238;stroke-miterlimit:10;" d="M394.988,212.158c-0.349,0-0.699-0.121-0.983-0.368
					c-0.625-0.544-0.691-1.491-0.147-2.116l18.571-21.351c0.544-0.624,1.49-0.691,2.116-0.147c0.625,0.544,0.691,1.491,0.147,2.116
					l-18.571,21.351C395.824,211.983,395.407,212.158,394.988,212.158z"/>
			</g>
		</g>
		<path style="fill:#FFFFFF;stroke:#263238;stroke-miterlimit:10;" d="M447.662,90.172l-7.611,51.157l-106.137-16.702
			c0,0-12.599-1.404-30.451,3.103c-17.852,4.507-33.497,15.674-33.497,15.674s-3.784-23.67,0.817-54.443
			c4.602-30.773,14.705-52.224,14.705-52.224s19.084,22.743,50.246,34.371C366.896,82.734,447.662,90.172,447.662,90.172z"/>
		<path style="fill:none;stroke:#263238;stroke-width:4;stroke-miterlimit:10;" d="M375.216,124.817l-40.457-6.366
			c0,0-12.6-1.404-30.451,3.103c-17.852,4.507-33.497,15.674-33.497,15.674"/>
		<g>
			<path style="fill:#92E3A9;stroke:#263238;stroke-miterlimit:10;" d="M270.943,145.964c-0.173,0.066-0.354,0.115-0.544,0.145
				c-1.495,0.239-2.9-0.779-3.139-2.274c-0.157-0.983-3.799-24.443,0.813-55.281c4.609-30.816,14.517-52.096,14.936-52.987
				c0.645-1.368,2.277-1.956,3.647-1.312c1.369,0.645,1.957,2.278,1.313,3.647c-0.1,0.211-9.992,21.491-14.474,51.463
				c-4.487,30.006-0.859,53.372-0.821,53.604C272.881,144.275,272.131,145.512,270.943,145.964z"/>
		</g>
		<path style="fill:#92E3A9;stroke:#263238;stroke-miterlimit:10;" d="M370.154,130.329l69.897,10.999l7.611-51.156
			c0,0-36.355-3.348-69.694-9.063L370.154,130.329z"/>
		<line style="fill:none;stroke:#263238;stroke-miterlimit:10;" x1="431.751" y1="111.026" x2="427.497" y2="138.734"/>
		<line style="fill:none;stroke:#263238;stroke-miterlimit:10;" x1="434.926" y1="90.353" x2="433.035" y2="102.665"/>
		<g>
			<g>
				<path style="fill:#FFFFFF;stroke:#263238;stroke-miterlimit:10;" d="M381.725,123.194l-0.868,9.482l3.569,1.897
					c0,0,0.461,8.163-3.876,18.151c-4.337,9.988-4.337,9.988-4.337,9.988s-6.644,6.594-9.842,7.811
					c-3.198,1.216-5.373,2.45-4.334,5.716c1.039,3.266,2.778,8.909,7.285,11.669c4.507,2.76,4.254,1.026,5.338-0.403
					c1.084-1.429,11.018-8.461,17.885-19.818c6.867-11.357,8.706-17.751,8.706-17.751s7.873,4.124,8.534,2.652
					c0.661-1.471,4.582-24.317,4.582-24.317L381.725,123.194z"/>
				<line style="fill:#FFFFFF;stroke:#263238;stroke-miterlimit:10;" x1="382.727" y1="132.779" x2="408.085" y2="150.794"/>
			</g>
			<path style="fill:#9C9C9C;stroke:#263238;stroke-miterlimit:10;" d="M384.16,136.54c0,0-4.756-1.548-6.635,0.208
				c-1.879,1.757-2.276,6.191-1.025,8.262c1.251,2.071,4.604,6.931,6.449,5.998c1.845-0.933,0.659-8.007,0.659-8.007
				S384.203,137.566,384.16,136.54z"/>
			<path style="fill:#9C9C9C;stroke:#263238;stroke-miterlimit:10;" d="M375.741,142.405c0,0-3.735-2.515-6.121,1.865
				c-2.386,4.38,0.771,7.81,3.191,10.826c2.42,3.015,5.414,4.192,6.864,2.83c1.45-1.362,1.943-4.327,1.582-5.579
				s-1.231-3.236-1.231-3.236S376.11,145.506,375.741,142.405z"/>
			<path style="fill:#9C9C9C;stroke:#263238;stroke-miterlimit:10;" d="M369.178,150.11c0,0-2.745,0.697-3.296,4.726
				c-0.551,4.03,4.536,8.578,6.484,10.962c1.949,2.385,3.735,2.516,5.667,1.202c1.932-1.313,1.885-3.263,1.269-4.882
				c-0.615-1.618-2.487-3.8-2.487-3.8s-3.634-2.554-5.188-4.51C370.073,151.853,369.178,150.11,369.178,150.11z"/>
			<path style="fill:#9C9C9C;stroke:#263238;stroke-miterlimit:10;" d="M368.204,161.246c0,0-4.495-2.689-6.115,0.358
				c-1.62,3.047,0.598,6.139,3.227,7.571c2.628,1.431,5.719,1.645,6.981,0.702c1.262-0.943,1.075-2.956,1.075-2.956L368.204,161.246
				z"/>
			<path style="fill:#9C9C9C;stroke:#263238;stroke-miterlimit:10;" d="M406.16,177.951c0,0,2.569-13.943,3.602-17.924
				c1.033-3.981,0.328-5.609,0.022-7.439c-0.306-1.83-10.005-6.939-12.445-8.789c-2.44-1.85-3.336-1.162-7.414-1.232
				c-4.078-0.07-7.158-3.297-8.806-0.934c-1.648,2.363,2.162,7.512,4.473,8.717c2.31,1.205,6.465,1.477,6.465,1.477l5.981,6.292
				c0,0-9.053,11.199-9.018,16.163c0.036,4.964,3.852,8.606,4.704,9.324"/>
		</g>
	</g>
</g>
<g id="Megaphone_2">
	<g>
		<path style="fill:#9C9C9C;stroke:#263238;stroke-miterlimit:10;" d="M66.162,314.323C84.491,301.089,94.083,293.3,94.083,293.3
			s0.513-0.998,2.141-8.701c1.628-7.703,2.774-15.508,7.89-17.344c5.116-1.836,10.521,1.62,12.568,8.591
			c2.047,6.971,9.626,31.244,9.626,31.244s-8.686,4.514-12.096,6.37c-3.41,1.857-7.309,5.433-16.567,12.655
			c-2.969,2.316-8.816,7.25-15.996,13.263L66.162,314.323z"/>
		<g>
			<g>
				<path style="fill:#92E3A9;stroke:#263238;stroke-miterlimit:10;" d="M137.048,253.002l-4.397,0.8c0,0-3.226,8.446-2.011,20.425
					c1.216,11.979,1.216,11.979,1.216,11.979s4.786,9.179,7.747,11.534c2.961,2.355,4.838,4.385,2.647,7.478
					c-2.191,3.092-5.918,8.454-11.593,9.849c-5.675,1.395-4.827-0.348-5.489-2.217c-0.662-1.869-8.768-12.614-12.19-26.885
					c-3.422-14.271-3.213-21.625-3.213-21.625s-9.523,1.677-9.882-0.07C99.113,260.505,135.657,248.137,137.048,253.002z"/>
			</g>
			<path style="fill:#9C9C9C;stroke:#263238;stroke-miterlimit:10;" d="M132.271,255.964c0,0,5.531-0.034,6.921,2.447
				c1.39,2.481,0.32,7.287-1.693,9.049c-2.013,1.762-7.178,5.757-8.808,4.155c-1.63-1.602,1.994-8.657,1.994-8.657
				S131.881,257.03,132.271,255.964z"/>
			<path style="fill:#9C9C9C;stroke:#263238;stroke-miterlimit:10;" d="M139.173,264.97c0,0,4.78-1.396,5.823,4.02
				c1.043,5.416-3.434,7.97-6.997,10.335c-3.562,2.365-7.112,2.599-8.183,0.677c-1.07-1.922-0.594-5.212,0.206-6.41
				c0.8-1.198,2.383-2.996,2.383-2.996S137.743,268.113,139.173,264.97z"/>
			<path style="fill:#9C9C9C;stroke:#263238;stroke-miterlimit:10;" d="M143.5,275.291c0,0,2.658,1.655,1.886,6.086
				c-0.772,4.431-7.659,7.515-10.512,9.373c-2.854,1.858-4.78,1.396-6.374-0.636c-1.594-2.032-0.89-4.071,0.302-5.569
				c1.192-1.498,3.896-3.169,3.896-3.169s4.686-1.471,6.98-3.01C141.972,276.828,143.5,275.291,143.5,275.291z"/>
			<path style="fill:#9C9C9C;stroke:#263238;stroke-miterlimit:10;" d="M140.787,287.351c0,0,5.639-1.324,6.323,2.43
				c0.683,3.754-2.692,6.267-5.941,6.893c-3.25,0.626-6.578-0.187-7.591-1.604c-1.013-1.417-0.141-3.475-0.141-3.475
				L140.787,287.351z"/>
			<path style="fill:#9C9C9C;stroke:#263238;stroke-miterlimit:10;" d="M95.188,292.208c0,0,1.974-15.552,2.223-20.094
				c0.249-4.541,1.538-6.02,2.474-7.845c0.937-1.825,12.871-3.952,16.063-5.082c3.192-1.13,3.905-0.104,8.225,1.191
				c4.32,1.296,8.649-1.071,9.591,1.972c0.943,3.043-4.801,7.189-7.639,7.683c-2.839,0.494-7.308-0.615-7.308-0.615l-8.414,4.621
				c0,0,5.779,14.839,4.074,20.057c-1.704,5.218-6.948,7.774-8.086,8.245"/>
		</g>
		<polygon style="fill:#FFFFFF;stroke:#263238;stroke-miterlimit:10;" points="73.266,307.848 91.918,339.59 79.483,348.426 
			61.812,314.065 		"/>
		<polygon style="fill:#263238;stroke:#263238;stroke-miterlimit:10;" points="0.173,406.776 88.973,363.479 64.43,309.157 
			0.173,341.171 		"/>
		<line style="fill:none;stroke:#263238;stroke-miterlimit:10;" x1="89.902" y1="257.44" x2="101.11" y2="254.215"/>
		<g>
			<path style="fill:#FFFFFF;stroke:#263238;stroke-miterlimit:10;" d="M119.595,204.558c0,0,16.469-3.83,36.194-14.746
				c19.725-10.916,32.172-25.278,32.172-25.278s10.23,5.339,18.959,35.428c7.277,25.087,4.022,43.088,3.447,44.62
				c-0.574,1.532-0.574,1.532-0.574,1.532s-20.682-5.745-46.727-4.979c-26.044,0.766-33.704,7.66-33.704,7.66L119.595,204.558z"/>
			<path style="fill:none;stroke:#263238;stroke-width:3;stroke-miterlimit:10;" d="M200.289,239.291
				c-8.773-1.582-22.384-3.35-37.825-2.896c-26.83,0.789-34.721,7.891-34.721,7.891"/>
			<path style="fill:none;stroke:#263238;stroke-width:3;stroke-miterlimit:10;" d="M210.6,241.525c0,0-2.572-0.714-7.054-1.614"/>
			<g>
				<path style="fill:#263238;" d="M209.792,248.342c-0.26,0-0.524-0.046-0.782-0.143c-1.152-0.432-1.735-1.716-1.303-2.867
					l0.575-1.532c0.742-2.242,3.284-19.829-3.501-43.218c-8.237-28.394-17.785-34.037-17.881-34.09
					c-1.061-0.596-1.462-1.941-0.882-3.011c0.58-1.07,1.894-1.485,2.974-0.922c0.452,0.236,11.176,6.131,20.067,36.782
					c8.051,27.755,3.45,45.872,3.394,46.022l-0.575,1.533C211.542,247.791,210.694,248.342,209.792,248.342z"/>
			</g>
			<polygon style="fill:#FFFFFF;stroke:#263238;stroke-miterlimit:10;" points="75.549,211.069 90.869,263.35 135.681,251.476 
				120.361,198.047 			"/>
			<polygon style="fill:#92E3A9;stroke:#263238;stroke-miterlimit:10;" points="90.869,263.35 98.016,261.456 83.291,208.82 
				75.549,211.069 			"/>
			<line style="fill:none;stroke:#263238;stroke-miterlimit:10;" x1="117.108" y1="206.985" x2="122.414" y2="205.462"/>
			<line style="fill:none;stroke:#263238;stroke-miterlimit:10;" x1="77.684" y1="218.301" x2="113.419" y2="208.044"/>
			<line style="fill:none;stroke:#263238;stroke-miterlimit:10;" x1="104.5" y1="253.24" x2="133.804" y2="244.808"/>
			<polygon style="fill:#92E3A9;stroke:#263238;stroke-miterlimit:10;" points="76.996,216.008 60.995,225.432 73.251,261.243 
				89.843,259.846 			"/>
			<line style="fill:none;stroke:#263238;stroke-miterlimit:10;" x1="78.422" y1="220.262" x2="68.081" y2="225.432"/>
			<line style="fill:none;stroke:#263238;stroke-miterlimit:10;" x1="79.954" y1="228.113" x2="69.804" y2="231.943"/>
			<line style="fill:none;stroke:#263238;stroke-miterlimit:10;" x1="82.252" y1="236.156" x2="72.485" y2="239.603"/>
			<line style="fill:none;stroke:#263238;stroke-miterlimit:10;" x1="84.55" y1="243.816" x2="76.124" y2="246.689"/>
			<line style="fill:none;stroke:#263238;stroke-miterlimit:10;" x1="87.039" y1="250.902" x2="79.762" y2="253.2"/>
		</g>
	</g>
</g>
<g id="Megaphone_1">
	<path style="fill:none;stroke:#263238;stroke-miterlimit:10;" d="M307.952,193.18c-0.41,1.96-0.96,3.96-1.63,6
		C306.982,197.14,307.532,195.13,307.952,193.18z"/>
	<g>
		<path style="fill:#92E3A9;stroke:#263238;stroke-miterlimit:10;" d="M288.822,229.5c-21.011,24.283-37.72,27.68-37.72,27.68
			c-10.45,3.54-19.81,3.06-25.85-2.27c-12.81-11.29-5.88-40.09,15.47-64.32c21.36-24.23,49.06-34.72,61.87-23.43
			c6.17,5.44,7.76,14.93,5.36,26.02C304.375,211.526,288.822,229.5,288.822,229.5z"/>
		
			<ellipse transform="matrix(0.6612 -0.7502 0.7502 0.6612 -68.5324 268.2945)" style="fill:#CFCFCF;stroke:#263238;stroke-miterlimit:10;" cx="262.771" cy="210.022" rx="54.465" ry="27.261"/>
		<path style="fill:#263238;stroke:#263238;stroke-miterlimit:10;" d="M283.222,228.05c-15.99,18.13-35.45,28.3-48.34,26.42
			c11.72-6.82,24.88-17.81,37.16-31.75c15.23-17.28,25.8-35.34,29.93-49.48C308.302,185.16,300.812,208.09,283.222,228.05z"/>
		<g>
			<path style="fill:#92E3A9;stroke:#263238;stroke-miterlimit:10;" d="M268.362,214.949c-5.437,6.169-12.347,8.964-15.435,6.242
				c-3.088-2.721-1.183-9.928,4.253-16.097c5.437-6.169,12.347-8.964,15.435-6.242C275.703,201.573,273.798,208.78,268.362,214.949z
				"/>
			<path style="fill:#92E3A9;stroke:#263238;stroke-miterlimit:10;" d="M272.615,198.852c3.088,2.721,1.183,9.928-4.253,16.097
				c-5.437,6.169-12.347,8.964-15.435,6.242l17.679,18.996c4.319-3.498,8.58-7.56,12.617-12.141
				c4.445-5.043,8.238-10.275,11.333-15.472L272.615,198.852z"/>
		</g>
		<path style="fill:none;stroke:#263238;stroke-miterlimit:10;" d="M294.992,221.43c0.94-1.36,1.83-2.72,2.68-4.08
			C296.832,218.71,295.932,220.07,294.992,221.43z"/>
		<g>
			<path style="fill:#92E3A9;stroke:#263238;stroke-miterlimit:10;" d="M384.822,292.55c-0.67,6.51-4.04,14.38-13.25,19.99
				c-7.67,4.68-12.36,4.72-17.98,1.8c-5.44-2.83-14.47-6.72-22.58-12.89c1.74,0.86,3.34,1.64,4.74,2.37
				c6.7,3.48,12.28,3.43,21.43-2.14c10.99-6.7,15.01-16.08,15.81-23.85c0.27-2.62,0.3-5.2-0.3-7.91c0.15,0.13,0.3,0.26,0.45,0.38
				C384.372,279.74,385.502,286.03,384.822,292.55z"/>
			<path style="fill:#FFFFFF;stroke:#263238;stroke-miterlimit:10;" d="M372.992,277.83c-0.8,7.77-4.82,17.15-15.81,23.85
				c-9.15,5.57-14.73,5.62-21.43,2.14c-1.4-0.73-3-1.51-4.74-2.37c-0.26-0.19-0.52-0.39-0.78-0.59
				c-7.11-5.58-24.59-18.4-41.87-28.45c-1.12-0.6-2.3-1.24-3.53-1.93c-16.41-9.12-31.18-12.72-33.73-13.3
				c2.4-0.8,4.87-1.83,7.36-3.06c0.38-0.19,0.77-0.38,1.15-0.58c0.37-0.18,0.73-0.37,1.09-0.57c0.07-0.04,0.14-0.08,0.21-0.12
				c0.48-0.25,0.95-0.51,1.42-0.78c1.27-0.72,2.54-1.49,3.81-2.31c0.03-0.02,0.06-0.03,0.09-0.06c0.41-0.26,0.81-0.52,1.22-0.8
				c0.76-0.51,1.53-1.04,2.29-1.59c0.4-0.28,0.8-0.57,1.2-0.88c0.45-0.32,0.89-0.65,1.33-1c0.38-0.28,0.75-0.57,1.12-0.87
				c1.79-1.42,3.57-2.93,5.33-4.54c0.47-0.42,0.94-0.85,1.41-1.3c0.09-0.08,0.18-0.16,0.27-0.25c0.45-0.44,0.91-0.88,1.36-1.32
				c0.95-0.94,1.9-1.9,2.83-2.9c0.36-0.37,0.71-0.75,1.06-1.14c0.5-0.54,0.98-1.08,1.47-1.63c0.58-0.66,1.15-1.32,1.7-1.98
				c0.56-0.66,1.11-1.33,1.64-2c0.54-0.67,1.06-1.34,1.58-2.01c0.55-0.73,1.09-1.45,1.61-2.18c0.46-0.62,0.91-1.25,1.34-1.88
				c0.94-1.36,1.84-2.72,2.68-4.08c0.43-0.69,0.84-1.37,1.24-2.05c0.81-1.36,1.56-2.73,2.28-4.09c0.27-0.51,0.53-1.02,0.78-1.53
				c0.26-0.51,0.51-1.01,0.74-1.52c0.49-1.02,0.94-2.02,1.37-3.03c0.28-0.67,0.56-1.34,0.82-2c0.26-0.67,0.51-1.33,0.75-1.99
				c0.23-0.64,0.45-1.28,0.66-1.92c0-0.01,0.01-0.03,0.01-0.04c0.67-2.04,1.22-4.04,1.63-6c1.16,3.93,3.04,8.96,6.08,14.32
				c0.7,1.22,1.45,2.46,2.27,3.71c8.87,13.53,44.66,48.73,56.39,58.71C373.292,272.63,373.262,275.21,372.992,277.83z"/>
		</g>
		<g>
			<path style="fill:#263238;stroke:#263238;stroke-miterlimit:10;" d="M299.525,279.629c0,0,6.811,10.429,7.45,14.261
				c0.638,3.831,2.98,11.707,4.257,13.197c1.277,1.49,15.325,2.767,16.815,1.49c1.49-1.277,11.281-10.217,11.281-10.217
				s-21.498-17.028-22.987-17.028S302.505,280.267,299.525,279.629z"/>
			<path style="fill:#FFFFFF;stroke:#263238;stroke-miterlimit:10;" d="M324.471,309.098c1.793-0.012,3.164-0.17,3.575-0.522
				c1.49-1.277,11.281-10.217,11.281-10.217s-21.497-17.028-22.987-17.028c0,0-1.49,3.831-0.639,4.896c0,0,6.385,6.385,7.875,13.197
				C324.816,305.088,323.122,306.926,324.471,309.098z"/>
		</g>
		<g>
			<g>
				<path style="fill:#263238;stroke:#263238;stroke-miterlimit:10;" d="M268.046,340.982c0,0-3.747,3.747-3.479,6.155
					s8.029,13.916,10.705,14.452c2.676,0.535,6.423-2.944,6.423-2.944S277.681,345.532,268.046,340.982z"/>
				<path style="fill:#B2B2B2;stroke:#263238;stroke-miterlimit:10;" d="M341.96,404.626c0,0-11.648-38.034-12.599-47.543
					c-0.951-9.508,2.377-28.288,2.852-32.804c0.475-4.517-4.516-9.509-5.705-10.935c-1.189-1.426-3.566-9.271-6.656-14.025
					c-3.09-4.754-20.206-9.984-27.575-12.361c-7.369-2.377-13.312-2.615-15.214,1.902c-1.902,4.516,0.951,8.795,1.426,9.508
					c0.475,0.713,0.713,1.902,0.713,1.902s-5.943-1.189-8.32,0.951s-4.041,5.943-3.328,8.32c0.713,2.377,1.902,4.279,1.902,4.279
					s-6.656-1.189-9.033,3.09c-2.377,4.279-0.713,6.656,0.238,7.607c0.951,0.951,2.139,2.377,2.139,2.377s-4.754,1.426-4.041,5.705
					c0.713,4.279,1.664,5.705,2.853,6.181c1.189,0.475,7.607,6.894,7.607,6.894s7.131,7.131,9.746,14.025
					c2.615,6.894,3.803,10.222,8.795,14.025c4.992,3.803,6.181,4.992,6.181,4.992l3.09,35.657L341.96,404.626z"/>
				<path style="fill:none;stroke:#263238;stroke-miterlimit:10;" d="M279.204,300.27c0,0,18.779,2.377,20.443,2.377
					s3.09-1.426,6.181,1.426c3.09,2.853,3.566,5.23,3.566,5.23"/>
				<path style="fill:none;stroke:#263238;stroke-miterlimit:10;" d="M269.458,313.82c0,0,18.542,1.426,19.492,1.426
					c0.951,0,5.467-2.139,8.32,1.189c2.853,3.328,3.566,6.181,3.566,6.181"/>
				<line style="fill:none;stroke:#263238;stroke-miterlimit:10;" x1="262.802" y1="326.894" x2="281.819" y2="331.173"/>
				<path style="fill:none;stroke:#263238;stroke-miterlimit:10;" d="M276.352,343.772c0,0,1.664,3.566,7.131,2.853"/>
				<path style="fill:none;stroke:#263238;stroke-miterlimit:10;" d="M296.557,378.002c0,0,1.189,2.377,8.082,0.475"/>
				<path style="fill:none;stroke:#263238;stroke-miterlimit:10;" d="M287.524,332.124c0,0,0,1.664,2.139,2.615
					c2.139,0.951,4.041,1.664,4.041,1.664l10.935,11.41"/>
				<line style="fill:none;stroke:#263238;stroke-miterlimit:10;" x1="307.254" y1="381.806" x2="309.631" y2="392.027"/>
			</g>
			<path style="fill:#92E3A9;stroke:#263238;stroke-miterlimit:10;" d="M342.769,401.866l-3.72,1.126
				c-13.949,4.224-28.55,5.869-43.089,4.857l-3.784-0.264l2.64,35.195c0,0,9.239,3.08,27.716,0.44
				c18.478-2.64,32.116-7.919,32.116-7.919L342.769,401.866z"/>
			<path style="fill:#92E3A9;stroke:#263238;stroke-miterlimit:10;" d="M294.816,442.78c0,0-3.96,6.159-3.52,17.158
				c0.44,10.999,0.44,39.155,0.44,39.155h84.95c0,0-14.12-49.273-17.639-55.433c-3.52-6.159-4.399-8.359-4.399-8.359
				S318.572,445.42,294.816,442.78z"/>
		</g>
	</g>
</g>
</svg>
